<?xml version="1.0" encoding="utf-8"?><svg xmlns="http://www.w3.org/2000/svg" xmlns:xlink="http://www.w3.org/1999/xlink"><symbol viewBox="0 0 96 96" id="azure" xmlns="http://www.w3.org/2000/svg"><defs><linearGradient id="aa" x1="-1032.172" x2="-1059.213" y1="145.312" y2="65.426" gradientTransform="matrix(1 0 0 -1 1075 158)" gradientUnits="userSpaceOnUse"><stop offset="0" stop-color="#114a8b"/><stop offset="1" stop-color="#0669bc"/></linearGradient><linearGradient id="ab" x1="-1023.725" x2="-1029.98" y1="108.083" y2="105.968" gradientTransform="matrix(1 0 0 -1 1075 158)" gradientUnits="userSpaceOnUse"><stop offset="0" stop-opacity=".3"/><stop offset=".071" stop-opacity=".2"/><stop offset=".321" stop-opacity=".1"/><stop offset=".623" stop-opacity=".05"/><stop offset="1" stop-opacity="0"/></linearGradient><linearGradient id="ac" x1="-1027.165" x2="-997.482" y1="147.642" y2="68.561" gradientTransform="matrix(1 0 0 -1 1075 158)" gradientUnits="userSpaceOnUse"><stop offset="0" stop-color="#3ccbf4"/><stop offset="1" stop-color="#2892df"/></linearGradient></defs><path fill="url(#aa)" d="M33.338 6.544h26.038l-27.03 80.087a4.152 4.152 0 01-3.933 2.824H8.149a4.145 4.145 0 01-3.928-5.47L29.404 9.368a4.152 4.152 0 013.934-2.825z"/><path fill="#0078d4" d="M71.175 60.261h-41.29a1.911 1.911 0 00-1.305 3.309l26.532 24.764a4.171 4.171 0 002.846 1.121h23.38z"/><path fill="url(#ab)" d="M33.338 6.544a4.118 4.118 0 00-3.943 2.879L4.252 83.917a4.14 4.14 0 003.908 5.538h20.787a4.443 4.443 0 003.41-2.9l5.014-14.777 17.91 16.705a4.237 4.237 0 002.666.972H81.24L71.024 60.261l-29.781.007L59.47 6.544z"/><path fill="url(#ac)" d="M66.595 9.364a4.145 4.145 0 00-3.928-2.82H33.648a4.146 4.146 0 013.928 2.82l25.184 74.62a4.146 4.146 0 01-3.928 5.472h29.02a4.146 4.146 0 003.927-5.472z"/></symbol><symbol fill="none" viewBox="0 0 24 24" id="git_icon" xmlns="http://www.w3.org/2000/svg"><defs><clipPath id="ba"><path fill="#fff" fill-opacity="0" d="M0 0h24v24H0z"/></clipPath></defs><g clip-path="url(#ba)" fill="currentColor" fill-rule="evenodd"><path d="M12 2C6.47 2 2 6.47 2 12c0 5.52 4.47 10 10 10 5.52 0 10-4.48 10-10 0-5.53-4.48-10-10-10zM0 12C0 5.37 5.37 0 12 0c6.62 0 12 5.37 12 12 0 6.62-5.38 12-12 12-6.63 0-12-5.38-12-12z"/><path d="M9.59 22.73c-.1-.12-.1-1.24 0-3.34-1.04.04-1.69-.03-1.97-.21-.41-.27-.82-1.1-1.18-1.69-.36-.58-1.17-.67-1.5-.81-.32-.13-.41-.66.9-.26 1.31.41 1.37 1.51 1.78 1.76.42.26 1.4.15 1.85-.06.44-.2.41-.97.49-1.27.1-.29-.25-.35-.26-.35-.44 0-2.73-.5-3.36-2.72-.63-2.22.18-3.67.62-4.29.28-.42.26-1.3-.08-2.66 1.23-.16 2.18.23 2.85 1.17 0 0 .88-.53 2.27-.53 1.38 0 1.87.43 2.25.53.38.09.68-1.64 3.03-1.17-.49.96-.9 2.17-.59 2.66.31.49 1.54 2.06.79 4.29-.5 1.49-1.49 2.39-2.97 2.72-.16.05-.25.14-.25.26 0 .18.23.2.56 1.04.22.56.23 2.17.05 4.82-.48.12-.85.2-1.11.24-.47.08-.98.12-1.48.13-.5.02-.68.02-1.37-.05-.46-.04-.9-.11-1.32-.21z"/></g></symbol><symbol fill="none" viewBox="0 0 24 24" id="moon" xmlns="http://www.w3.org/2000/svg"><defs><clipPath id="ca"><path fill="#fff" fill-opacity="0" d="M0 0h24v24H0z"/></clipPath></defs><g clip-path="url(#ca)"><path d="M14.02 2.2a6.363 6.363 0 107.77 7.77c.13.65.21 1.33.21 2.03 0 5.52-4.48 10-10 10-5.53 0-10-4.48-10-10C2 6.47 6.47 2 12 2c.69 0 1.37.07 2.02.2z" fill="none"/><path d="M9.27 8.36a6.363 6.363 0 0012.52 1.61c.13.65.21 1.33.21 2.03 0 5.52-4.48 10-10 10-5.53 0-10-4.48-10-10C2 6.47 6.47 2 12 2c.69 0 1.37.07 2.02.2-2.73.71-4.75 3.2-4.75 6.16z" stroke="currentColor" stroke-width="1.5" stroke-linejoin="round"/></g></symbol><symbol fill="none" viewBox="0 0 24 24" id="sun" xmlns="http://www.w3.org/2000/svg"><defs><clipPath id="da"><path fill="#fff" fill-opacity="0" d="M0 0h24v24H0z"/></clipPath></defs><g clip-path="url(#da)"><path d="M12 18.5c3.58 0 6.5-2.92 6.5-6.5a6.5 6.5 0 10-6.5 6.5z" fill="none"/><path d="M18.5 12a6.5 6.5 0 10-6.5 6.5c3.58 0 6.5-2.92 6.5-6.5z" stroke="currentColor" stroke-width="1.5" stroke-linejoin="round"/><path d="M12 3a1.25 1.25 0 000-2.5c-.7 0-1.25.55-1.25 1.25C10.75 2.44 11.3 3 12 3zM19.25 6a1.25 1.25 0 000-2.5c-.7 0-1.25.55-1.25 1.25 0 .69.55 1.25 1.25 1.25zM22.25 13.25a1.25 1.25 0 000-2.5c-.7 0-1.25.55-1.25 1.25 0 .69.55 1.25 1.25 1.25zM19.25 20.5a1.25 1.25 0 000-2.5c-.7 0-1.25.55-1.25 1.25 0 .69.55 1.25 1.25 1.25zM12 23.5a1.25 1.25 0 000-2.5c-.7 0-1.25.55-1.25 1.25 0 .69.55 1.25 1.25 1.25zM4.75 20.5a1.25 1.25 0 000-2.5c-.7 0-1.25.55-1.25 1.25 0 .69.55 1.25 1.25 1.25zM1.75 13.25a1.25 1.25 0 000-2.5C1.05 10.75.5 11.3.5 12c0 .69.55 1.25 1.25 1.25zM4.75 6a1.25 1.25 0 000-2.5c-.7 0-1.25.55-1.25 1.25C3.5 5.44 4.05 6 4.75 6z" fill="currentColor"/></g></symbol><symbol fill="none" viewBox="0 0 22 18.578" id="tg_icon" xmlns="http://www.w3.org/2000/svg"><rect rx="0" width="21" height="17.578" transform="translate(.5 .5)" fill="none"/><path d="M20.51.12L1.02 7.68C-.31 8.22-.3 8.97.78 9.3l5 1.57 11.58-7.35c.55-.34 1.05-.16.63.21l-9.37 8.52h-.01l.01.01-.35 5.19c.51 0 .73-.24 1.01-.51l2.43-2.38 5.06 3.76c.93.52 1.6.25 1.83-.87L21.92 1.7C22.26.33 21.4-.29 20.51.12z" fill="currentColor" fill-rule="evenodd"/></symbol></svg>